HIERARCHY
ROOT Hips
{
	OFFSET 0.000000 0.000000 0.000000
	CHANNELS 6 Xposition Yposition Zposition Zrotation Yrotation Xrotation
	JOINT LeftHip
	{
		OFFSET 0.080783 0.005359 -0.054022
		CHANNELS 3 Zrotation Yrotation Xrotation
		JOINT LeftKnee
		{
			OFFSET 0.001666 0.009362 -0.417793
			CHANNELS 3 Zrotation Yrotation Xrotation
			JOINT LeftFoot
			{
				OFFSET -0.001659 0.017971 -0.401351
				CHANNELS 3 Zrotation Yrotation Xrotation
				JOINT LeftToe
				{
					OFFSET 0.011334 -0.103219 -0.041164
					CHANNELS 3 Zrotation Yrotation Xrotation
					End Site
					{
						OFFSET 0.000000 -0.150000 -0.000000
					}
				}
			}
		}
	}
	JOINT RightHip
	{
		OFFSET -0.080781 0.005359 -0.054025
		CHANNELS 3 Zrotation Yrotation Xrotation
		JOINT RightKnee
		{
			OFFSET 0.001666 0.009362 -0.417793
			CHANNELS 3 Zrotation Yrotation Xrotation
			JOINT RightFoot
			{
				OFFSET 0.001659 0.016472 -0.401472
				CHANNELS 3 Zrotation Yrotation Xrotation
				JOINT RightToe
				{
					OFFSET  -0.011334 -0.104165 -0.041168
					CHANNELS 3 Zrotation Yrotation Xrotation
					End Site
					{
						OFFSET 0.000000 -0.150000 0.000000
					}
				}
			}
		}
	}
	JOINT Spine
	{
		OFFSET -0.000000 0.011802 0.097172
		CHANNELS 3 Zrotation Yrotation Xrotation
		JOINT Spine1
		{
			OFFSET -0.000000 0.013769 0.113368
			CHANNELS 3 Zrotation Yrotation Xrotation
			JOINT Spine2
			{
				OFFSET -0.000000 0.015737 0.129563
				CHANNELS 3 Zrotation Yrotation Xrotation
				JOINT Neck
				{
					OFFSET -0.000000 0.017704 0.145760
					CHANNELS 3 Zrotation Yrotation Xrotation
					JOINT Head
					{
						OFFSET  0.000000 -0.019722 0.067202
						CHANNELS 3 Zrotation Yrotation Xrotation
						End Site
						{
							OFFSET 0.0 0.000000 0.200000
						}
					}
				}
				JOINT LeftShoulder
				{
					OFFSET 0.061401 0.017995 0.098779
					CHANNELS 3 Zrotation Yrotation Xrotation
					JOINT LeftArm
					{
						OFFSET 0.115589 0.000581 -0.000000
						CHANNELS 3 Zrotation Yrotation Xrotation
						JOINT LeftForearm
						{
							OFFSET 0.255608 -0.000000 -0.000000
							CHANNELS 3 Zrotation Yrotation Xrotation
							JOINT LeftHand
							{
								OFFSET 0.234041 -0.000000 -0.000000
								CHANNELS 3 Zrotation Yrotation Xrotation
								End Site
								{
									OFFSET 0.200000 0.000000 0.000000
								}
							}
						}
					}
				}
				JOINT RightShoulder
				{
					OFFSET -0.061401 0.017414 0.098778
					CHANNELS 3 Zrotation Yrotation Xrotation
					JOINT RightArm
					{
						OFFSET -0.115589 -0.000581 -0.000000
						CHANNELS 3 Zrotation Yrotation Xrotation
						JOINT RightForearm
						{
							OFFSET -0.255711 -0.000000 0.000000
							CHANNELS 3 Zrotation Yrotation Xrotation
							JOINT RightHand
							{
								OFFSET -0.234017 -0.000000 0.000000
								CHANNELS 3 Zrotation Yrotation Xrotation
								End Site
								{
									OFFSET -0.200000 -0.000000 0.000000
								}
							}
						}
					}
				}
			}
		}
	}
}
MOTION
Frames: 15
Frame Time: 0.033333
0.0 0.0 0.91 0.0 0.0 0.0 0.0 0.0 0.0 0.0 0.0 0.0 0.0 0.0 0.0 0.0 0.0 0.0 0.0 0.0 0.0 0.0 0.0 0.0 0.0 0.0 0.0 0.0 0.0 0.0 0.0 0.0 0.0 0.0 0.0 0.0 0.0 0.0 0.0 0.0 0.0 0.0 0.0 0.0 0.0 0.0 0.0 0.0 0.0 0.0 0.0 0.0 0.0 0.0 0.0 0.0 0.0 0.0 0.0 0.0 0.0 0.0 0.0 0.0 0.0 0.0 0.0 0.0 0.0
999.000000 -0.000000 1.734709 -2.342863 0.525745 -4.464374 5.015954 -6.496891 3.671233 -3.714644 4.890832 1.696195 21.668881 1.760269 17.529877 0.000000 -0.000000 -0.000001 -7.641575 2.648988 1.932322 -4.023246 -4.146559 5.768186 -21.805822 -2.901373 9.601618 -0.000000 0.000000 -0.000001 0.176203 -0.920626 6.745296 -1.338818 -0.441606 -0.652499 -1.681319 1.133428 1.599139 -7.742917 -3.960245 6.775055 -6.264153 -1.148137 20.483909 4.651154 -1.546278 4.880512 -3.414519 72.247635 2.745729 -45.316460 -10.715496 10.479388 -6.078352 -9.890897 5.541756 -0.402718 2.743564 0.123928 4.730911 -73.578738 8.532960 39.276610 8.918210 8.062627 3.778492 2.713427 2.795465
0.000000 -0.000000 1.734709 -2.342863 0.525745 -4.464374 5.015954 -6.496891 3.671233 -3.714644 4.890832 1.696195 21.668881 1.760269 17.529877 0.000000 -0.000000 -0.000001 -7.641575 2.648988 1.932322 -4.023246 -4.146559 5.768186 -21.805822 -2.901373 9.601618 -0.000000 0.000000 -0.000001 0.176203 -0.920626 6.745296 -1.338818 -0.441606 -0.652499 -1.681319 1.133428 1.599139 -7.742917 -3.960245 6.775055 -6.264153 -1.148137 20.483909 4.651154 -1.546278 4.880512 -3.414519 72.247635 2.745729 -45.316460 -10.715496 10.479388 -6.078352 -9.890897 5.541756 -0.402718 2.743564 0.123928 4.730911 -73.578738 8.532960 39.276610 8.918210 8.062627 3.778492 2.713427 2.795465
0.003985 0.004046 1.731608 -3.024779 0.483084 -4.133522 4.900135 -6.156012 3.403091 -3.386930 4.917963 1.675762 21.268221 1.578123 15.280996 0.004291 -0.028343 0.058094 -7.253749 2.625642 1.496934 -3.746539 -3.812910 5.416997 -21.179650 -2.874726 8.023227 0.011507 0.061221 0.020759 0.208451 -0.621057 7.398609 -1.336223 -0.521275 -0.585264 -1.631434 1.086369 1.702346 -7.939803 -4.044065 7.367513 -6.698911 -1.369567 20.373366 4.227242 -1.649226 4.826611 -4.685004 72.593485 1.631061 -44.814595 -10.598388 10.428623 -6.052049 -9.763792 5.293987 -0.005568 2.797166 0.141700 6.418038 -74.269486 7.067788 39.728838 8.583381 8.936205 3.858707 2.610757 3.017231
0.008053 0.007672 1.728737 -3.647258 0.454362 -3.824674 4.741321 -5.819881 3.123916 -3.131282 4.913842 1.717164 20.876183 1.406357 13.203909 0.008847 -0.054919 0.114647 -6.824615 2.614926 1.032698 -3.472287 -3.458688 5.215857 -20.553168 -2.869112 6.609534 0.022708 0.125851 0.035050 0.210465 -0.305475 8.046460 -1.328875 -0.609831 -0.509583 -1.592372 1.031467 1.821078 -8.146261 -4.130758 7.981349 -7.130267 -1.597049 20.280645 3.787374 -1.745172 4.772945 -6.162295 72.902778 0.370239 -44.379650 -10.495513 10.386561 -6.050819 -9.653837 5.019503 0.360165 2.836748 0.167169 7.997442 -74.951207 5.712120 40.103776 8.260220 9.787099 3.916517 2.484016 3.212236
0.012205 0.010878 1.726095 -4.210272 0.439587 -3.537892 4.539496 -5.488471 2.833677 -2.947747 4.878510 1.820409 20.490461 1.245387 11.294459 0.013671 -0.079728 0.169657 -6.354295 2.616819 0.539595 -3.199103 -3.083966 5.164584 -19.924781 -2.884644 5.359227 0.033595 0.193888 0.042873 0.182396 0.026100 8.688968 -1.316811 -0.707275 -0.425457 -1.564178 0.968724 1.955337 -8.362449 -4.220306 8.616661 -7.558396 -1.830555 20.205780 3.331535 -1.834107 4.719494 -7.847590 73.171986 -1.037658 -44.011498 -10.406940 10.353342 -6.074588 -9.561025 4.718290 0.694475 2.862322 0.200335 9.453150 -75.626792 4.481013 40.401806 7.948782 10.615645 3.951883 2.333211 3.380484
0.016593 0.013782 1.723788 -4.707887 0.453328 -3.276153 4.274885 -5.168195 2.508908 -2.867604 4.799396 1.998138 20.116782 1.084598 9.622198 0.020667 -0.101000 0.203560 -5.831455 2.643198 -0.118704 -2.936494 -2.694554 5.516467 -19.299481 -2.924127 4.319130 0.045533 0.267893 0.025562 0.123127 0.368005 9.302887 -1.302254 -0.822985 -0.317780 -1.547618 0.892295 2.098430 -8.567290 -4.319715 9.256384 -7.969829 -2.063733 20.149656 2.896207 -1.882273 4.677296 -9.664753 73.409059 -2.508882 -43.700960 -10.345797 10.364154 -6.148286 -9.477254 4.414037 0.980474 2.855329 0.241247 10.789410 -76.246790 3.381536 40.601758 7.703289 11.384109 3.978708 2.147358 3.511819
0.021106 0.016715 1.721692 -5.197793 0.479122 -3.020807 3.991726 -4.852496 2.145576 -2.814638 4.706723 2.223575 19.772780 0.915773 8.091687 0.027643 -0.117777 0.225332 -5.295679 2.684996 -0.889920 -2.690605 -2.314083 6.082426 -18.683744 -2.978508 3.414923 0.059310 0.342234 -0.005436 0.054160 0.707080 9.904284 -1.287558 -0.945629 -0.199426 -1.538837 0.813062 2.239330 -8.762079 -4.426045 9.877805 -8.365272 -2.293726 20.103680 2.476128 -1.900548 4.643099 -11.527652 73.639578 -4.013267 -43.410375 -10.304967 10.381582 -6.240967 -9.394115 4.112335 1.246741 2.827066 0.283704 12.179522 -76.829762 2.235759 40.770667 7.506414 12.101013 4.000386 1.950640 3.626365
0.025743 0.019678 1.719807 -5.679943 0.516971 -2.771859 3.689745 -4.541357 1.743690 -2.789043 4.600502 2.496715 19.457527 0.739039 6.701376 0.034606 -0.130059 0.234973 -4.747248 2.742202 -1.774162 -2.459283 -1.942669 6.862744 -18.077047 -3.047803 2.646299 0.074898 0.416910 -0.050123 -0.024701 1.043332 10.493205 -1.272778 -1.075209 -0.070391 -1.537843 0.731025 2.378039 -8.946858 -4.539293 10.480945 -8.744834 -2.520517 20.067878 2.071263 -1.888937 4.616913 -13.437346 73.863051 -5.551671 -43.139703 -10.284458 10.405645 -6.352606 -9.311598 3.813170 1.493247 2.777542 0.327705 13.620228 -77.374920 1.046430 40.909608 7.357998 12.766499 4.016971 1.743057 3.724132
0.030616 0.023098 1.718246 -6.218341 0.591527 -2.530283 3.372388 -4.256527 1.259541 -2.789654 4.477614 2.836567 19.238682 0.526079 5.529690 0.041732 -0.130762 0.217526 -4.190014 2.817768 -2.972140 -2.281085 -1.627620 8.152840 -17.504446 -3.152099 2.158345 0.096656 0.492036 -0.115009 -0.119945 1.366613 11.099015 -1.273447 -1.224399 0.075259 -1.558874 0.640501 2.504954 -9.085419 -4.664466 11.045042 -9.080697 -2.738416 20.090445 1.713214 -1.802909 4.602963 -15.322676 74.102797 -7.076365 -42.890473 -10.284385 10.447222 -6.480505 -9.244466 3.559797 1.716077 2.681048 0.358407 15.286083 -77.799209 -0.343339 41.055365 7.323170 13.278966 4.021839 1.538122 3.787445
0.035541 0.026859 1.716728 -6.794577 0.699658 -2.295039 3.058721 -4.010198 0.774385 -2.809177 4.348092 3.131895 19.064061 0.299373 4.411214 0.048589 -0.128276 0.194764 -3.650902 2.889573 -4.356836 -2.142917 -1.368684 9.737873 -16.962276 -3.269973 1.810292 0.121679 0.564989 -0.172022 -0.221341 1.686293 11.749167 -1.284387 -1.388151 0.218553 -1.589297 0.535298 2.613835 -9.174261 -4.784268 11.595251 -9.383026 -2.948716 20.142855 1.374201 -1.671733 4.582597 -17.152074 74.315396 -8.567783 -42.635809 -10.279023 10.509971 -6.606194 -9.177738 3.356093 1.942645 2.549704 0.383055 17.139098 -78.142461 -1.925410 41.212179 7.327043 13.729392 4.030709 1.325232 3.852116
0.040518 0.030959 1.715253 -7.408492 0.841362 -2.066111 2.749166 -3.802363 0.288124 -2.847512 4.211936 3.382704 18.933542 0.058959 3.345531 0.055173 -0.122602 0.166687 -3.129632 2.957629 -5.929182 -2.045109 -1.165899 11.620563 -16.450721 -3.401439 1.602148 0.149984 0.635768 -0.221163 -0.328659 2.002340 12.443905 -1.305644 -1.566466 0.359496 -1.629104 0.415416 2.704684 -9.213113 -4.898726 12.131560 -9.652025 -3.151383 20.225179 1.054186 -1.495419 4.555854 -18.916615 74.502236 -10.017587 -42.375673 -10.268375 10.593878 -6.729596 -9.111418 3.202020 2.172941 2.383514 0.401650 19.161042 -78.401329 -3.682399 41.380492 7.369557 14.117757 4.043560 1.104385 3.918153
0.045109 0.035464 1.714089 -8.027778 1.046762 -1.848487 2.494950 -3.694967 -0.187225 -2.888427 4.052323 3.521114 18.858507 -0.160530 2.532025 0.065039 -0.130536 0.126267 -2.709778 3.010412 -7.852067 -2.108049 -1.096426 14.052183 -16.040165 -3.565922 1.964763 0.175398 0.710566 -0.265159 -0.465991 2.317218 13.241777 -1.321640 -1.763558 0.429275 -1.681635 0.257405 2.746142 -9.175032 -4.994318 12.633744 -9.856047 -3.334934 20.244834 0.756341 -1.310427 4.511465 -20.467841 74.647586 -11.359532 -42.080867 -10.200513 10.715412 -6.836680 -9.067240 3.144031 2.407717 2.202078 0.430344 21.208143 -78.593757 -5.523598 41.542552 7.394193 14.432911 4.070776 0.924734 3.984824
0.049700 0.040085 1.712832 -8.629724 1.277147 -1.653357 2.278573 -3.608546 -0.612572 -2.901008 3.877171 3.570521 18.814951 -0.394707 1.700553 0.074521 -0.145088 0.088604 -2.347520 3.075256 -9.873824 -2.255463 -1.076581 16.654385 -15.665042 -3.750600 2.572323 0.198433 0.787567 -0.316043 -0.624880 2.625675 14.091750 -1.327513 -1.964063 0.468581 -1.741587 0.089276 2.769473 -9.131616 -5.089493 13.130907 -10.041335 -3.504901 20.244390 0.459037 -1.127520 4.462233 -21.957832 74.778694 -12.680339 -41.771605 -10.117199 10.846667 -6.918942 -8.993788 3.094131 2.640743 2.019682 0.469596 23.258772 -78.764070 -7.401785 41.659035 7.412077 14.700821 4.089789 0.743829 4.022631
0.054290 0.044824 1.711481 -9.214394 1.532519 -1.480732 2.100359 -3.543110 -0.987963 -2.884871 3.686471 3.530967 18.803272 -0.643563 0.850988 0.083625 -0.166257 0.053699 -2.043466 3.152137 -11.996983 -2.492609 -1.105628 19.433741 -15.326725 -3.955460 3.425178 0.219073 0.866772 -0.373815 -0.805295 2.927682 14.994228 -1.323104 -2.167985 0.477407 -1.808885 -0.088973 2.774683 -9.082826 -5.184252 13.623056 -10.207762 -3.661301 20.223804 0.162250 -0.946699 4.408156 -23.382611 74.896624 -13.976418 -41.447814 -10.018445 10.987615 -6.976408 -8.891079 3.052333 2.871972 1.836327 0.519402 25.304667 -78.912596 -9.309056 41.729757 7.423238 14.921431 4.100732 0.561663 4.031577
